<svg version="1.2" xmlns="http://www.w3.org/2000/svg" viewBox="0 0 1068 134" width="1068" height="134" style="paint-order:stroke fill markers;stroke: #888;stroke-width: 2;stroke-linejoin: round;;fill: none">
	<title>PROYECTOS</title>
	<path id="PROJECTS" class="s0" aria-label="PROJECTS"  d="m106.9 48.3c-1.7 6.9-6.5 12-18.9 12h-34.2l3.7-3 4.4-18.1-2.1-3h34.3c12.4 0 14.6 4.8 12.8 12.1zm33.3 0c6-24.1-7.9-40.8-39-40.8h-64.2l-30 121.5h32.9l9-36.9-2.1-3h34.2c31.1 0 53.5-17.5 59.2-40.8zm98.7-0.4c-1.7 6.7-7.1 11.5-21 11.5h-30.6l3.7-3 4.2-17.2-2.1-3h32.1c12.2 0 15.4 5 13.7 11.7zm15.7 38.3c-1.6-5.4-5-9.5-9.1-11.4v-0.2c12.9-5.4 24.3-17.1 27.3-29.3 6-24-8.4-37.8-40.4-37.8h-62.1l-30 121.5h32.9l9.7-40-2.1-3h20.6c12.9 0 17.5 3.4 19.7 10.7l9.7 32.3h36.7zm135-17.4c-4.9 20-17.4 32.9-40.6 32.9-23 0-29.3-12.9-24.3-32.9 5.1-20.6 18-34.1 40.8-34.1 23.1 0 29.1 14 24.1 34.1zm33.2 0c8.8-35.9-7.1-62.9-50.3-62.9-42.9 0-72.3 27.2-81.1 62.9-8.9 36 7.6 61.6 50.4 61.6 42.3 0 72.1-25.4 81-61.6zm120.4-61.4h-32.7l-18.7 75.5c-3.6 14.8-14.7 18.9-24 18.9-8.7-0.1-15.8-5.3-20.3-14.4l-26.4 21.3c9 14.7 21.2 21.8 39.6 21.8 27.8-0.1 55.4-12.6 64.1-48.2zm110.2 92.8h-77.2l3.7-3 2.9-11.6-2.3-3h70.1l7.2-28.8h-70.2l3.7-3 2.9-11.7-2.1-3h77.1l7.2-28.7h-107.1l-30 121.5h107.1zm158.1-71.4c-10.5-15.7-25.1-22.8-48.3-22.8-43.7 0-74.6 26.6-83.6 62.7-9 36.3 8.7 61.8 53 61.8 21.6 0 42-8.2 59.4-22.9l-15.9-21.3c-10.7 10.3-22.5 15.4-35.6 15.4-25 0-32.4-13.5-27.6-33 5-19.9 19.8-33.9 44.3-33.9 12.7 0 22 5.3 27 16.1zm128.8-21.5h-116.1l-7 28.7h43.3l-2.4 3-22.2 89.8h32.7l22.2-89.8-0.9-3h43.2zm107.1 85.8c4.4-17.4-6.9-31.2-31.3-37.2-2.7-0.6-15.8-3.9-18.2-4.7-17.7-4.6-20.5-6.3-19.8-9.4 0.9-3.6 7.8-7.7 23.7-7.7 13.4 0 25.8 6.2 32.4 15.5l27.6-22.2c-11.2-13.7-28.3-21.6-51.9-21.6-34.8 0-60 15.6-65.2 36.9-5.6 22.5 14.8 30.7 34.5 35.8 2.5 0.6 18.4 4.7 21 5.3 14.4 3.4 14.4 7.5 13.9 9.4-1 3.9-5.8 8.4-23.7 8.4-13.3 0-28.6-5.7-36.9-15.9l-27.7 22.5c13 15.2 31.9 22.1 55 22.1 38.4 0 61.5-17 66.6-37.2z"/>
</svg>