<svg version="1.2" xmlns="http://www.w3.org/2000/svg" viewBox="0 0 1261 134" width="1261" height="134" style="paint-order:stroke fill markers;stroke: #aeaeae;stroke-width: 1;stroke-linejoin: round;;fill: none">
	<title>PROYECTOS</title>
	<path id="PROYECTOS" class="s0" aria-label="PROYECTOS"  d="m106.9 48.3c-1.7 6.9-6.5 12-18.9 12h-34.2l3.7-3 4.4-18.1-2.1-3h34.3c12.4 0 14.6 4.8 12.8 12.1zm33.3 0c6-24.1-7.9-40.8-39-40.8h-64.2l-30 121.5h32.9l9-36.9-2.1-3h34.2c31.1 0 53.5-17.5 59.2-40.8zm98.7-0.4c-1.7 6.7-7.1 11.5-21 11.5h-30.6l3.7-3 4.2-17.2-2.1-3h32.1c12.2 0 15.4 5 13.7 11.7zm15.7 38.3c-1.6-5.4-5-9.5-9.1-11.4v-0.2c12.9-5.4 24.3-17.1 27.3-29.3 6-24-8.4-37.8-40.4-37.8h-62.1l-30 121.5h32.9l9.7-40-2.1-3h20.6c12.9 0 17.5 3.4 19.7 10.7l9.7 32.3h36.7zm135-17.4c-4.9 20-17.4 32.9-40.6 32.9-23 0-29.3-12.9-24.3-32.9 5.1-20.6 18-34.1 40.8-34.1 23.1 0 29.1 14 24.1 34.1zm33.2 0c8.8-35.9-7.1-62.9-50.3-62.9-42.9 0-72.3 27.2-81.1 62.9-8.9 36 7.6 61.6 50.4 61.6 42.3 0 72.1-25.4 81-61.6zm130.2-61.4l-34.8 34-9.8 11.8h-0.3l-3.9-11.8-17.7-34h-41.2l40.2 72-12.2 49.5h33l12.2-49.5 75.6-72zm140.8 92.9h-77.2l3.7-3 2.9-11.7-2.3-3h70.1l7.2-28.8h-70.2l3.7-3 2.9-11.7-2.1-3h77.1l7.2-28.7h-107.1l-30 121.5h107.1zm158.1-71.3c-10.5-15.8-25.1-22.8-48.3-22.8-43.7 0-74.6 26.5-83.6 62.6-9 36.4 8.7 61.9 53 61.9 21.6 0 42-8.3 59.4-23l-15.9-21.3c-10.7 10.3-22.5 15.4-35.6 15.4-25 0-32.4-13.5-27.6-33 5-19.9 19.8-33.9 44.3-33.9 12.7 0 22 5.3 27 16.1zm128.8-21.5h-116.1l-7 28.7h43.3l-2.4 3-22.2 89.8h32.7l22.2-89.8-0.9-3h43.2zm94.2 61.3c-4.9 20-17.4 32.9-40.6 32.9-23 0-29.3-12.9-24.3-32.9 5.1-20.5 18-34 40.8-34 23.1 0 29.1 13.9 24.1 34zm33.2 0c8.8-35.8-7.1-62.8-50.3-62.8-42.9 0-72.3 27.2-81.1 62.8-8.9 36 7.6 61.7 50.4 61.7 42.3 0 72.1-25.5 81-61.7zm127.5 24.5c4.3-17.4-6.9-31.2-31.4-37.2-2.7-0.6-15.7-3.9-18.1-4.6-17.7-4.7-20.6-6.3-19.8-9.5 0.9-3.6 7.8-7.6 23.7-7.6 13.3 0 25.8 6.1 32.4 15.4l27.6-22.2c-11.3-13.6-28.4-21.6-51.9-21.6-34.8 0-60 15.6-65.3 36.9-5.5 22.5 14.9 30.8 34.5 35.9 2.6 0.5 18.5 4.6 21 5.2 14.4 3.5 14.4 7.5 14 9.5-1.1 3.8-5.9 8.3-23.7 8.3-13.4 0-28.7-5.6-36.9-15.8l-27.8 22.5c13.1 15.1 32 22 55.1 22 38.4 0 61.5-16.9 66.6-37.2z"/>
</svg>