<svg version="1.2" xmlns="http://www.w3.org/2000/svg" viewBox="0 0 788 140" width="788" height="140" style="paint-order:stroke fill markers;stroke: #aeaeae;stroke-width: 1;stroke-linejoin: round;;fill: none">
	<title>talent</title>
	<path id="TALENT" class="s0" aria-label="TALENT"  d="m130.1 8.5h-116.1l-7.1 28.7h43.4l-2.4 3-22.2 89.8h32.7l22.2-89.8-0.9-3h43.2zm36.9 67.6l3.8-3.1 10-13.7 6-9.9h0.3l0.9 9.9 3.4 13.7 2.3 3.1zm43.3-67.6h-26.8l-91.6 121.5h36.1l18.6-25.1-1.1-3h56.6l-2.6 3 6.5 25.1h35.9zm154.1 92.8h-70.2l3.8-3 22.2-89.8h-32.8l-30 121.5h100zm122.7 0h-77.2l3.7-3 2.9-11.7-2.3-3h70.1l7.2-28.8h-70.2l3.7-3 2.9-11.7-2.1-3h77.1l7.2-28.7h-107.1l-30 121.5h107.1zm164-92.8h-32.8l-16.9 69h-0.3l-6.8-15-33.9-54h-26.7l-30 121.5h32.9l17.2-69.9h0.3l6.9 15.9 33.3 54h26.8zm132.4 0h-116.1l-7.1 28.6h43.3l-2.4 3-22.1 89.9h32.6l22.3-89.9-0.9-3h43.1z"/>
</svg>