<svg version="1.2" xmlns="http://www.w3.org/2000/svg" viewBox="0 0 1072 145" width="1072" height="145" style="fill: #000000">
	<title>ubiqados</title>
	<path id="UBIQADOS" aria-label="UBIQADOS"  d="m146 3.5h-32.9l-16 65.1c-5 20.1-14.6 29.3-34.8 29.3-20.4-0.1-25.4-9.1-20.4-29.3l16.2-65.1h-32.9l-16.2 65.3c-8.8 36.4 5.7 57.7 46.3 57.7 40.6 0 65.6-21.6 74.5-57.8zm87.7 82.7c-1.2 5.1-4.6 10.2-18.9 10.2h-36l3.8-3 3.6-14.7-2.3-3h35.9c14.2 0 15.3 5.3 13.9 10.5zm6-45.3c-1 3.9-4 9-16.3 9h-33l3.6-3 2.8-11.7-2.1-3h33c12.5 0 13.1 4.3 12 8.7zm27.2 46c3-12.4-0.8-21-8.3-25.3v-0.3c7.2-5 12.5-12.8 14.6-21.1 4.9-20-7.2-36.7-36.9-36.7h-64.4l-30 121.5h65.7c30 0 53.3-13.8 59.3-38zm74.1-83.5h-32.7l-30 121.5h32.8zm105.3 62c-1.3 5.1-3.1 9.9-6 15l-0.8 3.5-11.6-15.8-25.2 19.9 7.8 10.2h-4.4c-22.9 0-29.6-12.8-24.7-32.8 5.1-20.8 18-34.5 40.9-34.5 23.2 0 29 14.3 24 34.5zm9.7 40.5c11.8-10.2 19.7-25.4 23.7-40.5 8.8-36.2-7.1-63.5-50.3-63.5-42.9 0-72.4 27.5-81.3 63.5-8.8 36.1 7.8 61.5 50.5 61.5 11.1 0 21-1.8 29.4-4.8l14.6 19.5 24.9-20.4zm94.5-34.8l3.7-3.2 10.1-13.6 6-9.9h0.3l0.9 9.9 3.4 13.6 2.3 3.2zm43.3-67.7h-26.8l-91.7 121.5h36.2l18.6-25-1.1-3h56.6l-2.6 3 6.5 25h35.8zm148.2 60.8c-4.8 19.5-12 32.1-40 32.1h-24.2l3.8-3 14.2-58.2-2.1-3h23.4c28.7 0 29.7 12.9 24.9 32.1zm33.3 0c6.6-26.8 5.1-60.8-49.6-60.8h-54.8l-30 121.5h55.5c54.3 0 72.3-33.9 78.9-60.7zm114.5 0.6c-5 20-17.4 32.8-40.7 32.8-22.9 0.1-29.2-12.8-24.3-32.8 5.1-20.6 18-34.1 40.8-34.1 23.1 0 29.1 14 24.2 34.1zm33.1 0c8.9-35.9-7-62.9-50.2-62.9-42.9 0-72.3 27.2-81.2 62.9-8.8 36 7.7 61.6 50.4 61.6 42.3 0 72.2-25.5 81-61.6zm127.5 24.5c4.4-17.4-6.9-31.2-31.3-37.3-2.7-0.6-15.8-3.9-18.2-4.6-17.7-4.7-20.5-6.3-19.8-9.5 0.9-3.6 7.8-7.6 23.7-7.6 13.4 0 25.8 6.1 32.4 15.4l27.6-22.2c-11.2-13.6-28.3-21.6-51.9-21.6-34.8 0-60 15.7-65.2 36.9-5.6 22.5 14.8 30.8 34.5 35.9 2.5 0.6 18.4 4.7 21 5.2 14.4 3.5 14.4 7.5 13.9 9.5-1 3.9-5.8 8.4-23.7 8.4-13.3 0-28.6-5.7-36.9-15.9l-27.7 22.5c13 15.1 31.9 22 55 22 38.4 0 61.5-16.9 66.6-37.1z"/>
</svg>